<svg width="150" height="27" viewBox="0 0 150 27" fill="none" xmlns="http://www.w3.org/2000/svg">
<path d="M5.10451 13.4392V23.4217H0V3.98196H1.58993L11.7711 13.5221V4.06492H16.8756V23.477H15.3693L5.10451 13.4392Z" fill="#F1F6F6"/>
<path d="M33.2656 8.46168H26.1807V11.2269H32.7078V15.6514H26.1807V18.8037H33.5167V23.4217H21.0762V4.06491H33.2656V8.46168Z" fill="#F1F6F6"/>
<path d="M49.3324 4.39674L52.7633 14.9877H52.847L54.2138 9.34656L56.0269 4.06491H61.3824V4.81153L54.409 23.6153H51.7034L48.3283 14.7665H48.2446L45.0089 23.6153H42.1638L35.1904 4.81153V4.06491H40.546L42.387 9.34656L43.8653 14.9877H43.949L47.2404 4.39674H49.3324Z" fill="#F1F6F6"/>
<path d="M74.7434 17.482C74.7434 18.8093 76.2776 19.473 77.8396 19.473C79.2901 19.473 80.8242 18.8093 80.8242 17.6479C80.8242 15.7952 78.6485 15.7122 77.226 15.6293C73.6556 15.408 70.0852 13.9977 70.0852 9.96047C70.0852 5.75727 73.6835 3.62802 77.6723 3.62802C81.4379 3.62802 85.2593 5.75727 85.1756 9.96047H80.4058C80.3779 8.63314 79.1227 8.08009 77.7559 8.08009C76.6123 8.08009 75.1061 8.38427 75.1061 9.84986C75.1061 11.1495 76.2218 11.4537 78.0907 11.6473C82.2468 12.0068 85.8729 12.9746 85.8729 17.6755C85.8729 21.7405 81.8842 23.8697 77.8954 23.8697C73.7672 23.8697 69.8063 21.8234 69.89 17.482H74.7434Z" fill="#F1F6F6"/>
<path d="M100.182 23.4273V15.6846H94.1289V23.4273H89.0244V4.07047H94.1289V11.061H100.182V4.06494H105.286V23.4218H100.182V23.4273Z" fill="#F1F6F6"/>
<path d="M132.901 17.1723H126.653V23.4218H121.549V4.06494H133.738V8.46171H126.653V12.7479H132.901V17.1723Z" fill="#F1F6F6"/>
<path d="M135.495 8.48936V4.06494H150V8.48936H145.23V23.4218H140.293V8.48936H135.495Z" fill="#F1F6F6"/>
<path d="M118.603 27L108.757 23.4383V3.27407L118.603 0V27Z" fill="#3BD9AF"/>
</svg>
