<svg width="318" height="378" viewBox="0 0 318 378" fill="none" xmlns="http://www.w3.org/2000/svg">
<path d="M317.109 0H0V378H317.109V0Z" fill="white"/>
<path d="M270.452 137.594H47.4478V147.083H270.452V137.594Z" fill="#373737"/>
<path d="M270.725 120.558H47.7207V130.047H270.725V120.558Z" fill="#373737"/>
<path d="M110.511 102.977H47.7207V112.466H110.511V102.977Z" fill="#FF5146"/>
<path d="M270.452 200.067H47.4478V209.556H270.452V200.067Z" fill="#373737"/>
<path d="M270.452 216.673H47.4478V226.163H270.452V216.673Z" fill="#373737"/>
<path opacity="0.6" d="M270.452 183.46H200.071V192.949H270.452V183.46Z" fill="#FF5146"/>
<path d="M196.117 236.585H125.736V246.075H196.117V236.585Z" fill="#FE6347"/>
<g opacity="0.5">
<path opacity="0.5" d="M267.284 363.58C284.795 363.58 298.99 349.385 298.99 331.874C298.99 314.363 284.795 300.167 267.284 300.167C249.773 300.167 235.578 314.363 235.578 331.874C235.578 349.385 249.773 363.58 267.284 363.58Z" fill="#FE6347"/>
</g>
<path d="M267.284 361.714C283.764 361.714 297.125 348.354 297.125 331.873C297.125 315.393 283.764 302.032 267.284 302.032C250.803 302.032 237.442 315.393 237.442 331.873C237.442 348.354 250.803 361.714 267.284 361.714Z" fill="#FF5146"/>
<path d="M254.773 327.366L265.963 337.623L281.816 314.31L287.411 318.973L265.963 346.949L250.11 329.231L254.773 327.366Z" fill="white"/>
</svg>
