<svg width="15" height="15" viewBox="0 0 15 15" fill="none" xmlns="http://www.w3.org/2000/svg">
<path d="M7.5 0C3.38057 0 0 3.38057 0 7.5C0 11.6194 3.38057 15 7.5 15C11.6194 15 15 11.6194 15 7.5C15 3.38057 11.6194 0 7.5 0ZM10.9182 9.05353C11.0899 9.22518 11.0898 9.50338 10.9182 9.67494L9.67494 10.9182C9.50329 11.0899 9.22509 11.0898 9.05353 10.9182L7.5 9.36425L5.94603 10.9182C5.77438 11.0899 5.49618 11.0898 5.32462 10.9182L4.08179 9.67494C3.91014 9.50329 3.91014 9.22518 4.08179 9.05353L5.63575 7.5L4.08179 5.94603C3.91014 5.77438 3.91014 5.49627 4.08179 5.32462L5.32462 4.08179C5.49627 3.91014 5.77438 3.91014 5.94603 4.08179L7.5 5.63575L9.05353 4.08179C9.22518 3.91014 9.50329 3.91014 9.67494 4.08179L10.9182 5.32462C11.0899 5.49627 11.0898 5.77447 10.9182 5.94603L9.36425 7.5L10.9182 9.05353Z" fill="#FF0F00"/>
</svg>
